<svg width="30" height="30" viewBox="0 0 30 30" fill="none" xmlns="http://www.w3.org/2000/svg">
<path id="Vector" d="M18.1055 8.82812C18.1055 9.6875 17.8027 10.4199 17.1973 11.0254C16.5918 11.6309 15.8594 11.9336 15 11.9336C14.1406 11.9336 13.4082 11.6309 12.8027 11.0254C12.1973 10.4199 11.8945 9.6875 11.8945 8.82812C11.8945 7.96875 12.1973 7.23633 12.8027 6.63086C13.4082 6.02539 14.1406 5.72266 15 5.72266C15.8594 5.72266 16.5918 6.02539 17.1973 6.63086C17.8027 7.23633 18.1055 7.96875 18.1055 8.82812ZM22.2852 15.918C22.1549 15.6576 21.9727 15.4492 21.7383 15.293C21.5039 15.1367 21.1947 15.0749 20.8105 15.1074C20.4264 15.14 20.0326 15.319 19.6289 15.6445C19.4987 15.7487 19.3099 15.8789 19.0625 16.0352C18.8151 16.1914 18.2878 16.3997 17.4805 16.6602C16.6732 16.9206 15.8464 17.0508 15 17.0508C14.1536 17.0508 13.3464 16.9336 12.5781 16.6992C11.8099 16.4648 11.25 16.2305 10.8984 15.9961L10.3711 15.6445C9.96745 15.319 9.57357 15.14 9.18945 15.1074C8.80534 15.0749 8.49609 15.1367 8.26172 15.293C8.02734 15.4492 7.84505 15.6576 7.71484 15.918C7.42839 16.5039 7.41536 16.9889 7.67578 17.373C7.9362 17.7572 8.5026 18.2357 9.375 18.8086C10.4557 19.4987 11.9271 19.9349 13.7891 20.1172L12.793 21.1328C10.944 22.9818 9.70052 24.2188 9.0625 24.8438C8.77604 25.1302 8.63281 25.472 8.63281 25.8691C8.63281 26.2663 8.77604 26.6081 9.0625 26.8945L9.23828 27.0703C9.52474 27.3568 9.86654 27.5 10.2637 27.5C10.6608 27.5 11.0026 27.3568 11.2891 27.0703L15.0195 23.3398C16.5039 24.8372 17.7474 26.0807 18.75 27.0703C19.0365 27.3568 19.3783 27.5 19.7754 27.5C20.1725 27.5 20.5143 27.3568 20.8008 27.0703L20.9766 26.8945C21.263 26.6081 21.4062 26.2663 21.4062 25.8691C21.4062 25.472 21.263 25.1302 20.9766 24.8438L17.2461 21.1328L16.2305 20.1172C18.0664 19.9349 19.5312 19.4987 20.625 18.8086C21.4974 18.2357 22.0638 17.7572 22.3242 17.373C22.5846 16.9889 22.5716 16.5039 22.2852 15.918ZM21.3281 8.82812C21.3281 7.08333 20.7096 5.59245 19.4727 4.35547C18.2357 3.11849 16.7448 2.5 15 2.5C13.2552 2.5 11.7643 3.11849 10.5273 4.35547C9.29036 5.59245 8.67188 7.08333 8.67188 8.82812C8.67188 10.5729 9.29036 12.0638 10.5273 13.3008C11.7643 14.5378 13.2552 15.1562 15 15.1562C16.7448 15.1562 18.2357 14.5378 19.4727 13.3008C20.7096 12.0638 21.3281 10.5729 21.3281 8.82812ZM30 5.625V24.375C30 25.9245 29.4499 27.2493 28.3496 28.3496C27.2493 29.4499 25.9245 30 24.375 30H5.625C4.07552 30 2.75065 29.4499 1.65039 28.3496C0.55013 27.2493 0 25.9245 0 24.375V5.625C0 4.07552 0.55013 2.75065 1.65039 1.65039C2.75065 0.55013 4.07552 0 5.625 0H24.375C25.9245 0 27.2493 0.55013 28.3496 1.65039C29.4499 2.75065 30 4.07552 30 5.625Z" fill="#EF3E37"/>
</svg>
