<svg width="30" height="30" viewBox="0 0 30 30" fill="none" xmlns="http://www.w3.org/2000/svg">
<path id="Vector" d="M30 3.21429V26.7857C30 28.5603 28.5603 30 26.7857 30H10.3393C10.9955 28.9018 11.8393 27.3214 12.1741 26.029C12.375 25.2589 13.1987 22.1183 13.1987 22.1183C13.7344 23.1429 15.3013 24.0067 16.9687 24.0067C21.9308 24.0067 25.5 19.4464 25.5 13.7812C25.5 8.35045 21.067 4.28571 15.3616 4.28571C8.26339 4.28571 4.5 9.04688 4.5 14.2366C4.5 16.6473 5.78571 19.6473 7.83482 20.6049C8.14955 20.7522 8.31027 20.6853 8.38393 20.3839C8.4375 20.1562 8.71875 19.0379 8.83929 18.5223C8.87946 18.3549 8.85937 18.2143 8.72545 18.0536C8.04911 17.2299 7.5 15.7165 7.5 14.3036C7.5 10.6741 10.2455 7.16518 14.9263 7.16518C18.9643 7.16518 21.7969 9.91741 21.7969 13.8549C21.7969 18.3013 19.5536 21.3817 16.6272 21.3817C15.0134 21.3817 13.808 20.0491 14.1897 18.4085C14.6518 16.4531 15.5491 14.3437 15.5491 12.9308C15.5491 9.3817 10.4933 9.87054 10.4933 14.6049C10.4933 16.058 10.9821 17.0491 10.9821 17.0491C8.87946 25.942 8.56473 26.0558 9 29.9464L9.14732 30H3.21429C1.43973 30 0 28.5603 0 26.7857V3.21429C0 1.43973 1.43973 0 3.21429 0H26.7857C28.5603 0 30 1.43973 30 3.21429Z" fill="#EF3E37"/>
</svg>
